<svg width="24" height="24" viewBox="0 0 24 24" fill="none" xmlns="http://www.w3.org/2000/svg">
<path fill-rule="evenodd" clip-rule="evenodd" d="M15.6963 18.724C15.2913 19.092 14.6347 19.092 14.2297 18.724L14.8718 18.1405C14.2297 18.724 14.2297 18.7241 14.2297 18.724L14.1616 18.662L13.9718 18.4884C13.8085 18.3387 13.5756 18.1244 13.2962 17.8652C12.7378 17.3473 11.9919 16.6484 11.2448 15.9271C10.5002 15.2082 9.74394 14.457 9.16972 13.8374C8.88449 13.5296 8.62932 13.2385 8.44036 12.9916C8.34692 12.8696 8.25488 12.7393 8.18206 12.6111C8.13218 12.5233 8 12.287 8 12C8 11.713 8.13218 11.4766 8.18206 11.3888C8.25488 11.2606 8.34692 11.1304 8.44036 11.0083C8.62932 10.7615 8.88449 10.4703 9.16972 10.1625C9.74394 9.54293 10.5002 8.79176 11.2448 8.07288C11.9919 7.35159 12.7378 6.65266 13.2962 6.13471C13.5756 5.87555 13.8085 5.66126 13.9718 5.5116L14.1616 5.33797L14.2284 5.27709L14.2296 5.27605C14.2296 5.27598 14.2297 5.27594 14.963 5.94226L15.6962 6.60859L15.6312 6.66782L15.4449 6.83829C15.2841 6.98573 15.054 7.19737 14.7779 7.45353C14.2251 7.96624 13.4896 8.65553 12.7552 9.36454C12.0183 10.076 11.2931 10.7972 10.7562 11.3765C10.5269 11.6239 10.3425 11.8342 10.2094 12C10.3425 12.1658 10.5269 12.376 10.7562 12.6235C11.2931 13.2028 12.0183 13.924 12.7552 14.6354C13.4896 15.3444 14.2251 16.0337 14.7779 16.5464C15.054 16.8026 15.2841 17.0142 15.4449 17.1617L15.6312 17.3321L15.6954 17.3906C16.1004 17.7586 16.1013 18.356 15.6963 18.724ZM10.0251 11.7467C10.0145 11.7225 10.0107 11.7213 10.0251 11.7467C10.0253 11.7471 10.0249 11.7464 10.0251 11.7467ZM15.6963 5.27594C16.1013 5.64394 16.1012 6.2406 15.6962 6.60859L14.963 5.94226L14.2296 5.27605C14.6346 4.90805 15.2913 4.90795 15.6963 5.27594Z" fill="white"/>
</svg>
