<svg width="24" height="24" viewBox="0 0 24 24" fill="none" xmlns="http://www.w3.org/2000/svg">
<path fill-rule="evenodd" clip-rule="evenodd" d="M5.00005 5.70005C3.72979 5.70005 2.70005 6.72979 2.70005 8.00005C2.70005 9.2703 3.72979 10.3 5.00005 10.3C6.2703 10.3 7.30005 9.2703 7.30005 8.00005C7.30005 6.72979 6.2703 5.70005 5.00005 5.70005ZM1.30005 8.00005C1.30005 5.9566 2.9566 4.30005 5.00005 4.30005C7.0435 4.30005 8.70005 5.9566 8.70005 8.00005C8.70005 10.0435 7.0435 11.7 5.00005 11.7C2.9566 11.7 1.30005 10.0435 1.30005 8.00005Z" fill="black"/>
<path fill-rule="evenodd" clip-rule="evenodd" d="M19 15.7C17.7298 15.7 16.7 16.7298 16.7 18C16.7 19.2703 17.7298 20.3 19 20.3C20.2703 20.3 21.3 19.2703 21.3 18C21.3 16.7298 20.2703 15.7 19 15.7ZM15.3 18C15.3 15.9566 16.9566 14.3 19 14.3C21.0435 14.3 22.7 15.9566 22.7 18C22.7 20.0435 21.0435 21.7 19 21.7C16.9566 21.7 15.3 20.0435 15.3 18Z" fill="black"/>
<path fill-rule="evenodd" clip-rule="evenodd" d="M22.7001 7.99995C22.7001 8.38655 22.3867 8.69995 22.0001 8.69995L12.0001 8.69995C11.6135 8.69995 11.3001 8.38655 11.3001 7.99995C11.3001 7.61335 11.6135 7.29995 12.0001 7.29995L22.0001 7.29995C22.3867 7.29995 22.7001 7.61335 22.7001 7.99995Z" fill="black"/>
<path fill-rule="evenodd" clip-rule="evenodd" d="M12.7001 18C12.7001 18.3866 12.3867 18.7 12.0001 18.7H2.00007C1.61347 18.7 1.30007 18.3866 1.30007 18C1.30007 17.6134 1.61347 17.3 2.00007 17.3H12.0001C12.3867 17.3 12.7001 17.6134 12.7001 18Z" fill="black"/>
</svg>
