<svg width="16" height="16" viewBox="0 0 16 16" fill="none" xmlns="http://www.w3.org/2000/svg">
<g clip-path="url(#clip0_298_378)">
<path d="M13.977 9.52467L13.9656 9.36812C13.7823 6.98214 12.6713 5.48642 11.6912 4.16712C10.7837 2.94548 9.99989 1.89052 9.99989 0.333921C9.99989 0.208925 9.92989 0.0946795 9.81889 0.0373691C9.70755 -0.0202538 9.57378 -0.0108166 9.47256 0.0627744C8.00062 1.11611 6.77247 2.89145 6.34346 4.58539C6.04563 5.76472 6.00622 7.09051 6.00069 7.96614C4.64137 7.67577 4.33344 5.64232 4.33019 5.62019C4.31488 5.51473 4.25044 5.42292 4.1567 5.3728C4.06198 5.32333 3.95064 5.31974 3.85461 5.36727C3.78334 5.40176 2.10499 6.25461 2.00734 9.66007C2.0005 9.77335 2.00018 9.88663 2.00018 10.0002C2.00018 13.3084 4.6918 16 7.99996 16C11.3081 16 13.9997 13.3084 13.9997 10.0002C13.9997 9.83422 13.9884 9.67929 13.977 9.52467ZM7.99996 15.3334C6.89713 15.3334 6.00004 14.3777 6.00004 13.2029C6.00004 13.1629 5.99972 13.1225 6.00263 13.073C6.01597 12.5776 6.11006 12.2394 6.21325 12.0145C6.40661 12.4298 6.7526 12.8116 7.3138 12.8116C7.49804 12.8116 7.64713 12.6626 7.64713 12.4783C7.64713 12.0037 7.65691 11.4562 7.77506 10.9621C7.88022 10.5236 8.13149 10.0578 8.44985 9.68414C8.59144 10.1692 8.86749 10.5617 9.13701 10.9448C9.52275 11.493 9.92148 12.0597 9.99148 13.0261C9.9957 13.0834 9.99995 13.141 9.99995 13.2029C9.99989 14.3777 9.1028 15.3334 7.99996 15.3334ZM10.1065 14.8978C10.4525 14.426 10.6665 13.8428 10.6665 13.2029C10.6665 13.1245 10.6617 13.0515 10.6519 12.9152C10.5728 11.827 10.0998 11.1545 9.68221 10.5611C9.32644 10.0559 9.01949 9.61942 9.01949 9.00029C9.01949 8.87367 8.94786 8.75811 8.83459 8.7018C8.72196 8.64514 8.58591 8.65786 8.48532 8.73436C7.84603 9.2174 7.31283 10.0305 7.12665 10.8069C7.03159 11.205 6.9984 11.6356 6.98669 11.9898C6.75557 11.7411 6.68395 11.2802 6.68332 11.274C6.66835 11.1669 6.60261 11.0735 6.50658 11.0237C6.41121 10.9742 6.29696 10.9729 6.20093 11.0224C6.11694 11.0653 5.37903 11.4885 5.33672 13.0451C5.33378 13.0978 5.33347 13.1505 5.33347 13.2029C5.33347 13.8428 5.54752 14.4261 5.89351 14.8979C3.99783 14.0793 2.66691 12.1929 2.66691 10.0003C2.66691 9.90035 2.6666 9.80076 2.67341 9.68973C2.73069 7.69174 3.37001 6.7009 3.7873 6.26376C4.07829 7.30538 4.84064 8.66699 6.33343 8.66699C6.51767 8.66699 6.66676 8.5179 6.66676 8.33366C6.66676 7.21813 6.69182 5.92912 6.99 4.74882C7.32852 3.41162 8.25589 1.96767 9.37532 0.990178C9.56118 2.41787 10.3388 3.46471 11.1562 4.56458C12.1278 5.87247 13.1324 7.22495 13.3006 9.41499L13.312 9.57448C13.3225 9.71317 13.3332 9.85151 13.3332 10.0002C13.3331 12.1929 12.0022 14.0793 10.1065 14.8978Z" fill="white"/>
</g>
<defs>
<clipPath id="clip0_298_378">
<rect width="16" height="16" fill="white"/>
</clipPath>
</defs>
</svg>
