<svg width="24" height="24" viewBox="0 0 24 24" fill="none" xmlns="http://www.w3.org/2000/svg">
<path d="M5.83337 11.9445C5.83337 13.0797 4.91308 14 3.77783 14C2.64259 14 1.72229 13.0797 1.72229 11.9445C1.72229 10.8092 2.64259 9.88892 3.77783 9.88892C4.91308 9.88892 5.83337 10.8092 5.83337 11.9445Z" fill="white"/>
<path d="M14.0555 11.9445C14.0555 13.0797 13.1352 14 12 14C10.8648 14 9.94446 13.0797 9.94446 11.9445C9.94446 10.8092 10.8648 9.88892 12 9.88892C13.1352 9.88892 14.0555 10.8092 14.0555 11.9445Z" fill="white"/>
<path d="M22.2777 11.9445C22.2777 13.0797 21.3574 14 20.2222 14C19.0869 14 18.1666 13.0797 18.1666 11.9445C18.1666 10.8092 19.0869 9.88892 20.2222 9.88892C21.3574 9.88892 22.2777 10.8092 22.2777 11.9445Z" fill="white"/>
</svg>
