<svg width="24" height="24" viewBox="0 0 24 24" fill="none" xmlns="http://www.w3.org/2000/svg">
<path d="M10.3172 4.61983C11.1043 3.3943 12.8956 3.3943 13.6827 4.61983L14.988 6.65196C15.2588 7.07362 15.6781 7.37824 16.1628 7.50552L18.4988 8.11892C19.9076 8.48885 20.4611 10.1924 19.5388 11.3198L18.0095 13.1891C17.6922 13.577 17.532 14.0699 17.5608 14.5702L17.6993 16.9814C17.7828 18.4356 16.3336 19.4884 14.9765 18.9596L12.726 18.0828C12.2591 17.9009 11.7408 17.9009 11.2739 18.0828L9.02344 18.9596C7.66627 19.4884 6.21713 18.4356 6.30065 16.9814L6.43914 14.5702C6.46788 14.0699 6.30773 13.577 5.99039 13.1891L4.46106 11.3198C3.53876 10.1924 4.09229 8.48885 5.50108 8.11892L7.83709 7.50552C8.32182 7.37824 8.74109 7.07362 9.01193 6.65196L10.3172 4.61983Z" fill="#FD9214"/>
</svg>
