<svg width="16" height="16" viewBox="0 0 16 16" fill="none" xmlns="http://www.w3.org/2000/svg">
<path fill-rule="evenodd" clip-rule="evenodd" d="M1.53333 8.00011C1.53333 4.42867 4.42855 1.53345 7.99999 1.53345C11.5714 1.53345 14.4667 4.42867 14.4667 8.00011C14.4667 11.5716 11.5714 14.4668 7.99999 14.4668C4.42855 14.4668 1.53333 11.5716 1.53333 8.00011ZM7.99999 2.46678C4.94402 2.46678 2.46666 4.94414 2.46666 8.00011C2.46666 11.0561 4.94402 13.5334 7.99999 13.5334C11.056 13.5334 13.5333 11.0561 13.5333 8.00011C13.5333 4.94414 11.056 2.46678 7.99999 2.46678Z" fill="white"/>
<path fill-rule="evenodd" clip-rule="evenodd" d="M7.99999 4.8667C8.25772 4.8667 8.46666 5.07563 8.46666 5.33337V8.39588L10.5649 9.59485C10.7886 9.72272 10.8664 10.0078 10.7385 10.2316C10.6106 10.4553 10.3256 10.5331 10.1018 10.4052L7.76846 9.07188C7.62306 8.98879 7.53333 8.83417 7.53333 8.6667V5.33337C7.53333 5.07563 7.74226 4.8667 7.99999 4.8667Z" fill="white"/>
</svg>
